<svg xmlns="http://www.w3.org/2000/svg" xmlns:xlink="http://www.w3.org/1999/xlink" version="1.1" viewBox="0 0 172 172"><g fill="none" fill-rule="nonzero" stroke="none" stroke-width="1" stroke-linecap="butt" stroke-linejoin="miter" stroke-miterlimit="10" stroke-dasharray="" stroke-dashoffset="0" font-family="none" font-weight="none" font-size="none" text-anchor="none" style="mix-blend-mode: normal"><path d="M0,172v-172h172v172z" fill="none"/><g><path d="M158.5625,59.125c0,-35.62281 -28.87719,-56.4375 -64.5,-56.4375c-35.08262,0 -63.62119,22.79538 -64.48119,57.50981c-0.02688,1.06425 -0.19081,2.12581 -0.52675,3.13631l-14.56625,43.69875c-0.54019,1.62325 0.55363,3.3325 2.25212,3.52063l8.03831,0.89225c2.72512,0.30637 4.78375,2.60687 4.78375,5.34544v24.38638c0,6.407 5.5685,11.39231 11.93787,10.6855l25.68713,-2.85681l-1.88394,14.22494c-0.42463,3.22231 2.08013,6.08181 5.32931,6.08181h71.208c3.19006,0 5.67869,-2.76275 5.34544,-5.93669l-3.86194,-36.679c-0.41656,-3.96675 0.26875,-7.97113 2.01563,-11.55356c8.28825,-16.97962 13.2225,-36.0555 13.2225,-56.01825z" fill="#00bfa6"/><path d="M51.08938,28.7455c2.74125,2.74125 7.04394,3.14438 10.23669,0.94062c8.75319,-6.03612 19.79612,-9.42237 31.82537,-9.42237c12.79519,0 24.47506,3.39162 33.46744,9.6965c3.18469,2.23331 7.51156,1.82481 10.26087,-0.9245l1.21744,-1.21744c3.43731,-3.43731 3.139,-9.19663 -0.76594,-12.09375c-11.44338,-8.48175 -26.617,-13.03706 -43.26875,-13.03706c-16.33731,0 -31.25563,4.945 -42.62106,13.73313c-3.8055,2.94281 -4.0635,8.61344 -0.66381,12.01581z" fill="#fff7f0"/><path d="M94.0625,34.9375c-23.74824,0 -43,19.25176 -43,43c0,23.74824 19.25176,43 43,43c23.74824,0 43,-19.25176 43,-43c0,-23.74824 -19.25176,-43 -43,-43z" fill="#f50057"/><path d="M118.25,67.1875h-13.4375v-13.4375c0,-1.4835 -1.204,-2.6875 -2.6875,-2.6875h-16.125c-1.4835,0 -2.6875,1.204 -2.6875,2.6875v13.4375h-13.4375c-1.4835,0 -2.6875,1.204 -2.6875,2.6875v16.125c0,1.4835 1.204,2.6875 2.6875,2.6875h13.4375v13.4375c0,1.4835 1.204,2.6875 2.6875,2.6875h16.125c1.4835,0 2.6875,-1.204 2.6875,-2.6875v-13.4375h13.4375c1.4835,0 2.6875,-1.204 2.6875,-2.6875v-16.125c0,-1.4835 -1.204,-2.6875 -2.6875,-2.6875z" fill="#fff7f0"/><path d="M94.0625,24.1875c1.48619,0 2.6875,-1.204 2.6875,-2.6875v-5.375c0,-1.4835 -1.20131,-2.6875 -2.6875,-2.6875c-1.48619,0 -2.6875,1.204 -2.6875,2.6875v5.375c0,1.4835 1.20131,2.6875 2.6875,2.6875zM77.90256,23.98056c0.31981,1.20131 1.40556,1.99412 2.59344,1.99412c0.23112,0 0.46494,-0.02956 0.69875,-0.09406c1.43244,-0.38431 2.28437,-1.85706 1.90006,-3.29219l-1.39213,-5.19225c-0.38162,-1.43512 -1.85438,-2.28975 -3.29219,-1.90006c-1.43244,0.38431 -2.28438,1.85706 -1.90006,3.29219zM118.92188,30.84981c0.42194,0.24456 0.88419,0.36013 1.34106,0.36013c0.92987,0 1.83288,-0.48106 2.33006,-1.34375l2.6875,-4.65475c0.74175,-1.28463 0.301,-2.92937 -0.98363,-3.67112c-1.28463,-0.74175 -2.92938,-0.301 -3.67113,0.98363l-2.6875,4.65475c-0.74444,1.28194 -0.30369,2.92669 0.98363,3.67113zM65.532,29.8635c0.49988,0.86269 1.40019,1.34375 2.33006,1.34375c0.45687,0 0.91912,-0.11556 1.34106,-0.36013c1.28731,-0.74175 1.72806,-2.3865 0.98363,-3.67112l-2.6875,-4.65475c-0.74444,-1.28731 -2.39456,-1.72806 -3.67113,-0.98362c-1.28731,0.74175 -1.72806,2.3865 -0.98362,3.67113zM106.93025,25.88063c0.23381,0.06181 0.46762,0.09406 0.69875,0.09406c1.18519,0 2.27362,-0.79281 2.59344,-1.99412l1.39212,-5.19225c0.38431,-1.43512 -0.46762,-2.90787 -1.90006,-3.29219c-1.42706,-0.387 -2.90788,0.46494 -3.29219,1.90006l-1.39213,5.19225c-0.38431,1.43512 0.46763,2.91056 1.90006,3.29219z" fill="#151515"/><path d="M147.75606,116.31769c8.82844,-18.0815 13.49394,-37.85881 13.49394,-57.19269c0,-34.81119 -27.6275,-59.125 -67.1875,-59.125c-38.05769,0 -66.306,25.28938 -67.166,60.13281c-0.0215,0.84387 -0.15319,1.63669 -0.38969,2.35156l-14.56625,43.69606c-0.516,1.548 -0.31175,3.22231 0.56706,4.59563c0.87881,1.376 2.31394,2.26825 3.93719,2.44831l8.03831,0.89494c1.36256,0.15319 2.39188,1.29806 2.39188,2.67137v24.38638c0,3.81625 1.63131,7.46587 4.47469,10.01362c2.84875,2.54775 6.66231,3.77056 10.44631,3.34325l7.79106,-0.86538c0.00269,0 0.00537,0 0.00806,0l14.47756,-1.60981l-1.42975,10.82256c-0.30638,2.30319 0.39506,4.62519 1.92694,6.37206c1.52919,1.74419 3.741,2.74662 6.063,2.74662h71.208c2.28169,0 4.46394,-0.97288 5.99044,-2.66869c1.5265,-1.69581 2.26556,-3.96944 2.02638,-6.23769l-3.86194,-36.679c-0.3655,-3.49375 0.24456,-6.98481 1.76031,-10.09694zM143.83769,165.73544c-0.516,0.57244 -1.2255,0.88956 -1.99681,0.88956h-71.208c-0.78744,0 -1.505,-0.32519 -2.021,-0.91644c-0.516,-0.59125 -0.74444,-1.34375 -0.64231,-2.12312l1.60712,-12.14213l8.65644,-0.96212c1.47544,-0.16394 2.537,-1.49156 2.37575,-2.967c-0.16394,-1.47275 -1.4835,-2.537 -2.967,-2.37306l-7.33687,0.81431v0l-29.10025,3.23306c-2.29244,0.25531 -4.56069,-0.48106 -6.26725,-2.00756c-1.70925,-1.52381 -2.6875,-3.71412 -2.6875,-6.00387v-24.38637c0,-4.11456 -3.08256,-7.55725 -7.17294,-8.01144l-8.03831,-0.89494l14.56894,-43.70144c0.40581,-1.22281 0.62888,-2.53969 0.66381,-3.91838c0.78475,-31.80656 26.77288,-54.8895 61.791,-54.8895c42.70169,0 61.8125,26.99594 61.8125,53.75c0,18.51956 -4.47737,37.48256 -12.94569,54.83575c-1.95919,4.01781 -2.74662,8.51938 -2.27363,13.01287l3.86194,36.679c0.07794,0.77131 -0.16125,1.51038 -0.67994,2.08281z" fill="#151515"/><path d="M94.0625,32.25c-25.19263,0 -45.6875,20.49488 -45.6875,45.6875c0,25.19262 20.49488,45.6875 45.6875,45.6875c25.19262,0 45.6875,-20.49487 45.6875,-45.6875c0,-25.19263 -20.49487,-45.6875 -45.6875,-45.6875zM94.0625,118.25c-22.22831,0 -40.3125,-18.08419 -40.3125,-40.3125c0,-22.22831 18.08419,-40.3125 40.3125,-40.3125c22.22831,0 40.3125,18.08419 40.3125,40.3125c0,22.22831 -18.08419,40.3125 -40.3125,40.3125z" fill="#151515"/><path d="M118.25,64.5h-10.75v-10.75c0,-2.96431 -2.41069,-5.375 -5.375,-5.375h-16.125c-2.96431,0 -5.375,2.41069 -5.375,5.375v10.75h-10.75c-2.96431,0 -5.375,2.41069 -5.375,5.375v16.125c0,2.96431 2.41069,5.375 5.375,5.375h10.75v10.75c0,2.96431 2.41069,5.375 5.375,5.375h16.125c2.96431,0 5.375,-2.41069 5.375,-5.375v-10.75h10.75c2.96431,0 5.375,-2.41069 5.375,-5.375v-16.125c0,-2.96431 -2.41069,-5.375 -5.375,-5.375zM118.25,86h-13.4375c-1.48619,0 -2.6875,1.204 -2.6875,2.6875v13.4375h-16.125v-13.4375c0,-1.4835 -1.20131,-2.6875 -2.6875,-2.6875h-13.4375v-16.125h13.4375c1.48619,0 2.6875,-1.204 2.6875,-2.6875v-13.4375h16.125v13.4375c0,1.4835 1.20131,2.6875 2.6875,2.6875h13.4375z" fill="#151515"/></g></g></svg>