<svg xmlns="http://www.w3.org/2000/svg" xmlns:xlink="http://www.w3.org/1999/xlink" version="1.1" viewBox="0 0 172 172"><g fill="none" fill-rule="nonzero" stroke="none" stroke-width="1" stroke-linecap="butt" stroke-linejoin="miter" stroke-miterlimit="10" stroke-dasharray="" stroke-dashoffset="0" font-family="none" font-weight="none" font-size="none" text-anchor="none" style="mix-blend-mode: normal"><path d="M0,172v-172h172v172z" fill="none"/><g><path d="M135.88672,158.39453c-6.22526,0 -96.29514,0 -100.78125,0l16.79688,-43.67187c0.04602,0 67.14652,0 67.1875,0c0.81969,2.13152 16.02086,41.65491 16.79688,43.67188z" fill="#333333"/><circle cx="78.5" cy="350.5" transform="scale(0.33594,0.33594)" r="30" fill="#ffe527"/><circle cx="443.5" cy="265.5" transform="scale(0.33594,0.33594)" r="20" fill="#ffe527"/><circle cx="461" cy="155.5" transform="scale(0.33594,0.33594)" r="7.5" fill="#2ecc71"/><circle cx="451" cy="403" transform="scale(0.33594,0.33594)" r="7.5" fill="#2ecc71"/><circle cx="403.5" cy="58.5" transform="scale(0.33594,0.33594)" r="7.5" fill="#2ecc71"/><circle cx="396" cy="318" transform="scale(0.33594,0.33594)" r="7.5" fill="#2ecc71"/><circle cx="101" cy="48" transform="scale(0.33594,0.33594)" r="7.5" fill="#2ecc71"/><circle cx="81" cy="428" transform="scale(0.33594,0.33594)" r="7.5" fill="#2ecc71"/><circle cx="51" cy="233" transform="scale(0.33594,0.33594)" r="7.5" fill="#2ecc71"/><path d="M92.21484,136.55859h-13.4375c-0.92752,0 -1.67969,0.75183 -1.67969,1.67969c0,0.92786 0.75216,1.67969 1.67969,1.67969h13.4375c0.92786,0 1.67969,-0.75183 1.67969,-1.67969c0,-0.92786 -0.75183,-1.67969 -1.67969,-1.67969z" fill="#2ecc71"/><path d="M119.08984,146.30078c0.92786,0 1.67969,-0.75183 1.67969,-1.67969c0,-0.92786 -0.75183,-1.67969 -1.67969,-1.67969h-8.73437v-1.34375c0,-0.92786 -0.75183,-1.67969 -1.67969,-1.67969c-0.92786,0 -1.67969,0.75183 -1.67969,1.67969v1.34375h-4.70312c-0.92786,0 -1.67969,0.75183 -1.67969,1.67969c0,0.92786 0.75183,1.67969 1.67969,1.67969h4.70313v12.09375c1.13849,0 2.25918,0 3.35938,0v-12.09375z" fill="#2ecc71"/><path d="M68.69922,146.30078c0.92786,0 1.67969,-0.75183 1.67969,-1.67969c0,-0.92786 -0.75183,-1.67969 -1.67969,-1.67969h-8.73437v-6.38281v-5.03906c0,-0.92786 -0.75183,-1.67969 -1.67969,-1.67969c-0.92752,0 -1.67969,0.75183 -1.67969,1.67969v5.03906v6.38281h-4.70312c-0.92752,0 -1.67969,0.75183 -1.67969,1.67969c0,0.92786 0.75216,1.67969 1.67969,1.67969h4.70313v12.09375c1.09415,0 2.21484,0 3.35938,0v-12.09375z" fill="#2ecc71"/><path d="M112.37109,129.83984c-0.92786,0 -1.67969,0.75183 -1.67969,1.67969c0,0.92786 0.75183,1.67969 1.67969,1.67969h4.19922h8.97961h0.64601c-0.43672,-1.13614 -0.86907,-2.26019 -1.29202,-3.35937h-8.3336z" fill="#2ecc71"/><path d="M108.67578,59.125v13.4375h-15.95703v15.95703h-13.4375v-15.95703h-15.95703v-13.4375h15.95703v-15.95703h13.4375v15.95703z" fill="#1abc9c"/><path d="M85.49609,138.23828c-20.59465,-28.22278 -51.77805,-39.05341 -51.77805,-72.51883c0,-28.59836 23.17969,-51.77805 51.77805,-51.77805c28.59836,0 51.77805,23.17969 51.77805,51.77805c0,33.46845 -31.17567,44.28463 -51.77805,72.51883zM122.95313,65.84375c0,-20.4082 -16.54492,-36.95312 -36.95312,-36.95312c-20.4082,0 -36.95312,16.54492 -36.95312,36.95313c0,20.4082 16.54492,36.95313 36.95313,36.95313c20.4082,0 36.95313,-16.54492 36.95313,-36.95312z" fill="#f50057"/></g></g></svg>