<svg xmlns="http://www.w3.org/2000/svg" viewBox="0 0 50 50" width="50" height="50" preserveAspectRatio="xMidYMid meet" style="width: 100%; height: 100%; transform: translate3d(0px, 0px, 0px);"><defs><clipPath id="__lottie_element_2"><rect width="50" height="50" x="0" y="0"></rect></clipPath><filter id="__lottie_element_10" filterUnits="objectBoundingBox" x="0%" y="0%" width="100%" height="100%"><feComponentTransfer in="SourceGraphic"><feFuncA type="table" tableValues="1.0 0.0"></feFuncA></feComponentTransfer></filter><mask id="__lottie_element_9" mask-type="alpha"><g filter="url(#__lottie_element_10)"><rect width="50" height="50" x="0" y="0" fill="#ffffff" opacity="0"></rect><g transform="matrix(1,0,0,1,0,0)" opacity="1" style="display: block;"><g opacity="1" transform="matrix(0,0,0,0,25,24)"><path fill="rgb(255,0,0)" fill-opacity="1" d=" M0,-20.44700050354004 C0,-20.44700050354004 5.695000171661377,-5.678999900817871 5.695000171661377,-5.678999900817871 C5.695000171661377,-5.678999900817871 21.5,-4.827000141143799 21.5,-4.827000141143799 C21.5,-4.827000141143799 9.21399974822998,5.1519999504089355 9.21399974822998,5.1519999504089355 C9.21399974822998,5.1519999504089355 13.286999702453613,20.44700050354004 13.286999702453613,20.44700050354004 C13.286999702453613,20.44700050354004 0,11.847000122070312 0,11.847000122070312 C0,11.847000122070312 -13.288000106811523,20.44700050354004 -13.288000106811523,20.44700050354004 C-13.288000106811523,20.44700050354004 -9.21399974822998,5.1519999504089355 -9.21399974822998,5.1519999504089355 C-9.21399974822998,5.1519999504089355 -21.5,-4.827000141143799 -21.5,-4.827000141143799 C-21.5,-4.827000141143799 -5.695000171661377,-5.678999900817871 -5.695000171661377,-5.678999900817871 C-5.695000171661377,-5.678999900817871 0,-20.44700050354004 0,-20.44700050354004z"></path></g></g></g></mask></defs><g clip-path="url(#__lottie_element_2)"><g mask="url(#__lottie_element_9)" style="display: block;"><g transform="matrix(1,0,0,1,0,0)" opacity="1"><g opacity="1" transform="matrix(1,0,0,1,25,24)"><path fill="rgb(0,0,0)" fill-opacity="1" d=" M0,-20.44700050354004 C0,-20.44700050354004 5.695000171661377,-5.678999900817871 5.695000171661377,-5.678999900817871 C5.695000171661377,-5.678999900817871 21.5,-4.827000141143799 21.5,-4.827000141143799 C21.5,-4.827000141143799 9.21399974822998,5.1519999504089355 9.21399974822998,5.1519999504089355 C9.21399974822998,5.1519999504089355 13.286999702453613,20.44700050354004 13.286999702453613,20.44700050354004 C13.286999702453613,20.44700050354004 0,11.847000122070312 0,11.847000122070312 C0,11.847000122070312 -13.288000106811523,20.44700050354004 -13.288000106811523,20.44700050354004 C-13.288000106811523,20.44700050354004 -9.21399974822998,5.1519999504089355 -9.21399974822998,5.1519999504089355 C-9.21399974822998,5.1519999504089355 -21.5,-4.827000141143799 -21.5,-4.827000141143799 C-21.5,-4.827000141143799 -5.695000171661377,-5.678999900817871 -5.695000171661377,-5.678999900817871 C-5.695000171661377,-5.678999900817871 0,-20.44700050354004 0,-20.44700050354004z"></path></g></g></g><g transform="matrix(1,0,0,1,0,0)" opacity="1" style="display: block;"><g opacity="1" transform="matrix(1,0,0,1,25,24)"><path stroke-linecap="butt" stroke-linejoin="miter" fill-opacity="0" stroke-miterlimit="10" stroke="rgb(0,0,0)" stroke-opacity="1" stroke-width="2" d=" M0,-20.44700050354004 C0,-20.44700050354004 5.695000171661377,-5.678999900817871 5.695000171661377,-5.678999900817871 C5.695000171661377,-5.678999900817871 21.5,-4.827000141143799 21.5,-4.827000141143799 C21.5,-4.827000141143799 9.21399974822998,5.1519999504089355 9.21399974822998,5.1519999504089355 C9.21399974822998,5.1519999504089355 13.286999702453613,20.44700050354004 13.286999702453613,20.44700050354004 C13.286999702453613,20.44700050354004 0,11.847000122070312 0,11.847000122070312 C0,11.847000122070312 -13.288000106811523,20.44700050354004 -13.288000106811523,20.44700050354004 C-13.288000106811523,20.44700050354004 -9.21399974822998,5.1519999504089355 -9.21399974822998,5.1519999504089355 C-9.21399974822998,5.1519999504089355 -21.5,-4.827000141143799 -21.5,-4.827000141143799 C-21.5,-4.827000141143799 -5.695000171661377,-5.678999900817871 -5.695000171661377,-5.678999900817871 C-5.695000171661377,-5.678999900817871 0,-20.44700050354004 0,-20.44700050354004z"></path></g></g><g transform="matrix(1,0,0,1,0,0)" opacity="1" style="display: block;"><g opacity="1" transform="matrix(1,0,0,1,10.498000144958496,10.498000144958496)"><path stroke-linecap="round" stroke-linejoin="miter" fill-opacity="0" stroke-miterlimit="10" stroke="rgb(0,0,0)" stroke-opacity="1" stroke-width="2" d="M0 0"></path></g><g opacity="1" transform="matrix(1,0,0,1,6.083000183105469,14.682000160217285)"><path stroke-linecap="round" stroke-linejoin="miter" fill-opacity="0" stroke-miterlimit="10" stroke="rgb(0,0,0)" stroke-opacity="1" stroke-width="2" d="M0 0"></path></g><g opacity="1" transform="matrix(1,0,0,1,7.830999851226807,33.58399963378906)"><path stroke-linecap="round" stroke-linejoin="miter" fill-opacity="0" stroke-miterlimit="10" stroke="rgb(0,0,0)" stroke-opacity="1" stroke-width="2" d="M0 0"></path></g><g opacity="1" transform="matrix(1,0,0,1,6.169000148773193,27.56800079345703)"><path stroke-linecap="round" stroke-linejoin="miter" fill-opacity="0" stroke-miterlimit="10" stroke="rgb(0,0,0)" stroke-opacity="1" stroke-width="2" d="M0 0"></path></g><g opacity="1" transform="matrix(1,0,0,1,7.841000080108643,41.30099868774414)"><path stroke-linecap="round" stroke-linejoin="miter" fill-opacity="0" stroke-miterlimit="10" stroke="rgb(0,0,0)" stroke-opacity="1" stroke-width="2" d="M0 0"></path></g><g opacity="1" transform="matrix(1,0,0,1,0,0)"><path stroke-linecap="round" stroke-linejoin="miter" fill-opacity="0" stroke-miterlimit="10" stroke="rgb(0,0,0)" stroke-opacity="1" stroke-width="2" d="M0 0"></path></g><g opacity="1" transform="matrix(1,0,0,1,18.729999542236328,44.70500183105469)"><path stroke-linecap="round" stroke-linejoin="miter" fill-opacity="0" stroke-miterlimit="10" stroke="rgb(0,0,0)" stroke-opacity="1" stroke-width="2" d="M0 0"></path></g><g opacity="1" transform="matrix(1,0,0,1,15.791999816894531,8.119999885559082)"><path stroke-linecap="round" stroke-linejoin="miter" fill-opacity="0" stroke-miterlimit="10" stroke="rgb(0,0,0)" stroke-opacity="1" stroke-width="2" d="M0 0"></path></g><g opacity="1" transform="matrix(1,0,0,1,39.50199890136719,10.498000144958496)"><path stroke-linecap="round" stroke-linejoin="miter" fill-opacity="0" stroke-miterlimit="10" stroke="rgb(0,0,0)" stroke-opacity="1" stroke-width="2" d="M0 0"></path></g><g opacity="1" transform="matrix(1,0,0,1,43.91699981689453,14.682000160217285)"><path stroke-linecap="round" stroke-linejoin="miter" fill-opacity="0" stroke-miterlimit="10" stroke="rgb(0,0,0)" stroke-opacity="1" stroke-width="2" d="M0 0"></path></g><g opacity="1" transform="matrix(1,0,0,1,42.16899871826172,33.58399963378906)"><path stroke-linecap="round" stroke-linejoin="miter" fill-opacity="0" stroke-miterlimit="10" stroke="rgb(0,0,0)" stroke-opacity="1" stroke-width="2" d="M0 0"></path></g><g opacity="1" transform="matrix(1,0,0,1,43.83100128173828,27.56800079345703)"><path stroke-linecap="round" stroke-linejoin="miter" fill-opacity="0" stroke-miterlimit="10" stroke="rgb(0,0,0)" stroke-opacity="1" stroke-width="2" d="M0 0"></path></g><g opacity="1" transform="matrix(1,0,0,1,42.159000396728516,41.30099868774414)"><path stroke-linecap="round" stroke-linejoin="miter" fill-opacity="0" stroke-miterlimit="10" stroke="rgb(0,0,0)" stroke-opacity="1" stroke-width="2" d="M0 0"></path></g><g opacity="1" transform="matrix(1,0,0,1,31.270000457763672,44.70500183105469)"><path stroke-linecap="round" stroke-linejoin="miter" fill-opacity="0" stroke-miterlimit="10" stroke="rgb(0,0,0)" stroke-opacity="1" stroke-width="2" d="M0 0"></path></g><g opacity="1" transform="matrix(1,0,0,1,34.20800018310547,8.119999885559082)"><path stroke-linecap="round" stroke-linejoin="miter" fill-opacity="0" stroke-miterlimit="10" stroke="rgb(0,0,0)" stroke-opacity="1" stroke-width="2" d="M0 0"></path></g></g></g></svg>