<svg xmlns="http://www.w3.org/2000/svg" xmlns:xlink="http://www.w3.org/1999/xlink" version="1.1" viewBox="0 0 172 172"><g fill="none" fill-rule="nonzero" stroke="none" stroke-width="1" stroke-linecap="butt" stroke-linejoin="miter" stroke-miterlimit="10" stroke-dasharray="" stroke-dashoffset="0" font-family="none" font-weight="none" font-size="none" text-anchor="none" style="mix-blend-mode: normal"><path d="M0,172v-172h172v172z" fill="none"/><g><path d="M162.56284,115.8504v0c-1.87823,-2.59948 -5.21241,-3.5512 -8.10684,-2.31394l-41.581,18.15104h-1.37499c1.12741,-1.25573 1.8228,-2.93509 1.8228,-4.78711v0c0,-3.88243 -3.03184,-7.02983 -6.77216,-7.02983h-14.89849l-4.20728,-2.91157c-7.38223,-5.10894 -16.91143,-5.44958 -24.61481,-0.88016l-6.39255,3.79173v5.62393v22.49538l46.71278,5.10423c3.10473,0.3393 6.23836,-0.25061 9.03067,-1.69984l47.95945,-24.89263c3.8317,-1.98841 4.9927,-7.09366 2.42245,-10.65123z" fill="#dad2ce"/><path d="M109.70073,23.66612v0c6.51752,-6.4715 17.0841,-6.4715 23.60163,0l1.07265,1.06526l1.07265,-1.06526c6.51752,-6.4715 17.0841,-6.4715 23.60162,0v0c6.51752,6.4715 6.51752,16.96417 0,23.43567l-1.07265,1.06526l-23.60162,23.43567l-23.60162,-23.43567l-1.07265,-1.06526c-6.51752,-6.4715 -6.51752,-16.96417 0,-23.43567z" fill="#973646"/><path d="M62.29927,23.66612v0c-6.51752,-6.4715 -17.0841,-6.4715 -23.60162,0l-1.07265,1.06526l-1.07265,-1.06526c-6.51752,-6.4715 -17.0841,-6.4715 -23.60162,0v0c-6.51752,6.4715 -6.51752,16.96417 0,23.43567l1.07265,1.06526l23.60163,23.43567l23.60163,-23.43567l1.07265,-1.06526c6.51752,-6.4715 6.51752,-16.96417 0,-23.43567z" fill="#973646"/><path d="M121.88988,36.48113v0c-9.47982,-9.22484 -24.84963,-9.22484 -34.32945,0l-1.56043,1.51844l-1.56043,-1.51844c-9.47982,-9.22484 -24.84963,-9.22484 -34.32945,0v0c-9.47982,9.22484 -9.47982,24.18145 0,33.4063l1.56043,1.51844l34.32945,33.40663l34.32945,-33.4063l1.56043,-1.51844c9.48016,-9.22518 9.48016,-24.18179 0,-33.40663z" fill="#f50057"/><rect x="96" y="328" transform="scale(0.33594,0.33594)" width="72" height="128" fill="#00bfa6"/><rect x="24" y="336" transform="scale(0.33594,0.33594)" width="72" height="112" fill="#2ecc71"/><path d="M153.39948,111.0653l-37.39052,15.98223c0.00067,-0.04905 0.00101,-0.09809 0.00101,-0.14714c0,-5.3582 -4.24356,-9.71733 -9.45933,-9.71733h-14.05932l-3.5176,-2.4342c-8.30438,-5.74688 -18.84744,-6.12347 -27.51496,-0.98161l-2.33376,1.3844v-4.96415c0,-1.48417 -1.20333,-2.6875 -2.6875,-2.6875h-24.1875c-1.48417,0 -2.6875,1.20333 -2.6875,2.6875h-21.5c-1.48417,0 -2.6875,1.20333 -2.6875,2.6875v37.625c0,1.48417 1.20333,2.6875 2.6875,2.6875h21.5c0,1.48417 1.20333,2.6875 2.6875,2.6875h24.1875c1.48417,0 2.6875,-1.20333 2.6875,-2.6875v-2.20039l43.73369,4.77871c0.67154,0.07323 1.34308,0.10985 2.01294,0.10985c2.96028,0 5.88126,-0.71219 8.54759,-2.09591l47.95945,-24.89263c2.49702,-1.29605 4.30907,-3.64055 4.97255,-6.4322c0.67591,-2.84573 0.08936,-5.82684 -1.60981,-8.1784c-2.61998,-3.62577 -7.28413,-4.94634 -11.34192,-3.21123zM29.5625,147.8125h-18.8125v-32.25h18.8125zM53.75,150.5h-18.8125v-37.625h18.8125zM161.12134,121.21263c-0.30134,1.27018 -1.11061,2.32838 -2.21887,2.90384l-47.95945,24.89263c-2.32536,1.20669 -4.91846,1.69548 -7.50048,1.41362l-44.31755,-4.84288v-24.17877l5.07568,-3.01101c6.83834,-4.05678 15.15918,-3.75813 21.71433,0.7787l4.20762,2.91191c0.44948,0.31074 0.98295,0.47737 1.52952,0.47737h14.89849c2.25212,0 4.08433,1.94777 4.08433,4.34233c0,2.39456 -1.8322,4.34233 -4.08433,4.34233h-14.89849c-1.48417,0 -2.6875,1.20333 -2.6875,2.6875c0,1.48417 1.20333,2.6875 2.6875,2.6875h14.89849c2.59041,0 4.94097,-1.07534 6.65123,-2.81381c0.38566,0.01881 0.79248,-0.04972 1.17713,-0.21433l41.1332,-17.58196c1.73075,-0.74041 3.73428,-0.15755 4.87244,1.41698c0.78273,1.0834 1.05148,2.4641 0.73671,3.78803z" fill="#000000"/><path d="M35.73132,73.50884c0.52406,0.52037 1.2087,0.78038 1.89368,0.78038c0.68464,0 1.36962,-0.26002 1.89368,-0.78038l5.504,-5.46436c0.9413,1.33569 2.01092,2.59948 3.21291,3.76922l35.89022,34.92473c0.52171,0.5076 1.19762,0.76157 1.8742,0.76157c0.67658,0 1.35248,-0.25363 1.8742,-0.76157l35.88988,-34.92473c1.20198,-1.16973 2.27195,-2.4332 3.21324,-3.76922l5.504,5.46436c0.5244,0.52003 1.20904,0.78038 1.89368,0.78038c0.68464,0 1.36962,-0.26002 1.89368,-0.78038l24.67461,-24.49992c3.66373,-3.6372 5.68171,-8.47604 5.68171,-13.62462c0,-5.14858 -2.01798,-9.98709 -5.68138,-13.62428c-7.2838,-7.23475 -18.97241,-7.49174 -26.56862,-0.77098c-7.59555,-6.72043 -19.28449,-6.46377 -26.56762,0.76997c-1.53389,1.52213 -2.7735,3.24919 -3.7064,5.14824c-6.5491,0.14613 -13.05319,2.59075 -18.10098,7.34729c-5.04813,-4.75654 -11.55222,-7.20149 -18.10132,-7.34796c-0.93323,-1.89872 -2.17251,-3.62544 -3.70539,-5.14656c-7.28346,-7.23475 -18.97207,-7.49174 -26.56829,-0.77098c-7.59622,-6.72077 -19.28516,-6.46377 -26.56829,0.7703c-3.66373,3.63787 -5.68171,8.47637 -5.68171,13.62495c0,5.14858 2.01798,9.98709 5.68104,13.62395zM111.59441,25.57358c5.46268,-5.4264 14.35226,-5.42673 19.8146,-0.00034l1.07164,1.06492c1.04846,1.04141 2.73991,1.04141 3.78837,0l1.0713,-1.06459c5.46302,-5.4264 14.35192,-5.4264 19.81527,0.00034c2.64047,2.62098 4.09441,6.10499 4.09441,9.81038c0,3.70539 -1.45394,7.1894 -4.09441,9.81105l-22.78059,22.61934l-4.68767,-4.65408c1.31083,-3.12388 2.00017,-6.4977 2.00017,-9.97634c0,-7.04125 -2.81381,-13.6572 -7.92342,-18.62941c-3.89184,-3.78669 -8.68902,-6.16916 -13.71969,-7.14841c0.45889,-0.64735 0.97355,-1.26077 1.55002,-1.83287zM67.27484,32.25403c5.53726,0 11.07485,2.0509 15.29053,6.15337l1.56077,1.51844c1.04309,1.01487 2.7053,1.01487 3.74839,0l1.56043,-1.51844c8.4317,-8.2046 22.15037,-8.2046 30.58106,0c4.06014,3.9513 6.29648,9.19898 6.29648,14.77688c0,5.57791 -2.23634,10.82592 -6.29681,14.77722l-34.01569,33.10093l-34.01602,-33.10093c-4.06048,-3.9513 -6.29648,-9.19931 -6.29648,-14.77722c0,-5.57791 2.236,-10.82592 6.29648,-14.77722c4.21568,-4.10213 9.75327,-6.15303 15.29087,-6.15303zM14.84441,25.57358c5.46268,-5.4264 14.35226,-5.42673 19.8146,-0.00034l1.07164,1.06492c1.04846,1.04141 2.73991,1.04141 3.78837,0l1.0713,-1.06459c5.46268,-5.4264 14.35159,-5.42673 19.81595,0.00101c0.5758,0.57143 1.0918,1.18384 1.5517,1.83052c-5.03201,0.97892 -9.82987,3.36206 -13.72271,7.15009c-5.10894,4.97188 -7.92275,11.58783 -7.92275,18.62908c0,3.47863 0.68934,6.85212 2.00017,9.97634l-4.68767,4.65408l-22.78093,-22.62002c-2.64013,-2.62098 -4.09407,-6.10499 -4.09407,-9.81038c0,-3.70539 1.45394,-7.1894 4.09441,-9.81072z" fill="#000000"/></g></g></svg>