<svg xmlns="http://www.w3.org/2000/svg" viewBox="0 0 1000 207.98" width="90%">
    <defs>
    <style>
        .a {
            fill: white;
        }

        .b {
            fill: #f3b932;
        }
    </style>
    </defs>
    <title>Logo CRX Clinicarx</title>
    <path d="M326.89,199.39q-24.31,0-37-13.52t-12.73-38.41A59.08,59.08,0,0,1,281,125.38,47.59,47.59,0,0,1,291.65,109a44.49,44.49,0,0,1,16.11-10.14A58.13,58.13,0,0,1,328,95.38a65,65,0,0,1,11.51.94,75.11,75.11,0,0,1,9.06,2.16,44.85,44.85,0,0,1,6.47,2.52q2.59,1.29,3.74,2l-6.47,18.13A54.38,54.38,0,0,0,341.64,117a51.14,51.14,0,0,0-13.88-1.73A30.67,30.67,0,0,0,317.61,117a23,23,0,0,0-8.77,5.54,27.57,27.57,0,0,0-6.11,9.85,41.33,41.33,0,0,0-2.3,14.67,52.37,52.37,0,0,0,1.51,12.88,27.3,27.3,0,0,0,4.89,10.29,23.45,23.45,0,0,0,8.85,6.83,31.47,31.47,0,0,0,13.23,2.52,60.27,60.27,0,0,0,8.77-.57,64.88,64.88,0,0,0,6.91-1.37,36,36,0,0,0,5.32-1.8q2.3-1,4.17-1.87l6.19,18a52.48,52.48,0,0,1-13.38,5.18,78,78,0,0,1-20,2.3" transform="translate(-35.48 -45.69)" class="a"></path>
    <path d="M399.25,198.81a53.65,53.65,0,0,1-15.18-2,22.43,22.43,0,0,1-9.21-5.25,17.38,17.38,0,0,1-4.6-8.2A44.2,44.2,0,0,1,369,172.49V89.2l21.43-3.45v82.43a28.2,28.2,0,0,0,.43,5.18,8.92,8.92,0,0,0,1.65,3.88,8.73,8.73,0,0,0,3.52,2.59,19.24,19.24,0,0,0,6.19,1.29Z" transform="translate(-35.48 -45.69)" class="a"></path>
    <path d="M433.78,99.84a11.77,11.77,0,0,1-3.81,9.28,13.64,13.64,0,0,1-18,0,11.76,11.76,0,0,1-3.81-9.28A11.76,11.76,0,0,1,412,90.56a13.64,13.64,0,0,1,18,0,11.77,11.77,0,0,1,3.81,9.28m-2,97.53H410.33V121.71h21.43Z" transform="translate(-35.48 -45.69)" class="a"></path>
    <path d="M447.73,124.3a119.6,119.6,0,0,1,14.1-2.95A116,116,0,0,1,480,120q9.63,0,16,2.52a24.14,24.14,0,0,1,10.14,7.12,27.81,27.81,0,0,1,5.32,10.93,58.29,58.29,0,0,1,1.58,14.1v42.72H491.6V157.24q0-10.36-2.73-14.67t-10.21-4.32q-2.3,0-4.89.22t-4.6.5v58.4H447.73Z" transform="translate(-35.48 -45.69)" class="a"></path>
    <path d="M551.73,99.84a11.77,11.77,0,0,1-3.81,9.28,13.65,13.65,0,0,1-18,0,11.76,11.76,0,0,1-3.81-9.28,11.76,11.76,0,0,1,3.81-9.28,13.65,13.65,0,0,1,18,0,11.77,11.77,0,0,1,3.81,9.28m-2,97.53H528.28V121.71h21.43Z" transform="translate(-35.48 -45.69)" class="a"></path>
    <path d="M562.09,159.54a44.59,44.59,0,0,1,2.66-15.46,36.19,36.19,0,0,1,19.92-21.22,40.37,40.37,0,0,1,16.4-3.16,53,53,0,0,1,11.08,1.08,54.07,54.07,0,0,1,9.78,3.09L617.47,141a54.25,54.25,0,0,0-6.62-2,34.62,34.62,0,0,0-8.06-.86q-9.5,0-14.17,5.9T584,159.54q0,10.22,4.39,15.82T603.66,181a52.42,52.42,0,0,0,8.34-.72,35.37,35.37,0,0,0,8.2-2.3l3,17.55a50.23,50.23,0,0,1-9.35,2.73,61.7,61.7,0,0,1-12.37,1.15,46.58,46.58,0,0,1-17.84-3.09,33.58,33.58,0,0,1-12.3-8.42,32.81,32.81,0,0,1-7-12.59,53.38,53.38,0,0,1-2.23-15.75" transform="translate(-35.48 -45.69)" class="a"></path>
    <path d="M657,119.69a49.64,49.64,0,0,1,15.83,2.16A24.58,24.58,0,0,1,683,128a22.78,22.78,0,0,1,5.39,9.78,48.35,48.35,0,0,1,1.58,12.8v44.6q-4.61,1-12.8,2.37A123.16,123.16,0,0,1,657.32,199,63,63,0,0,1,644,197.66a28.85,28.85,0,0,1-10.28-4.24,19.39,19.39,0,0,1-6.62-7.7,26.54,26.54,0,0,1-2.3-11.65,22.08,22.08,0,0,1,2.66-11.22,20.47,20.47,0,0,1,7.12-7.34,32.21,32.21,0,0,1,10.21-4,57.35,57.35,0,0,1,11.94-1.22,68.27,68.27,0,0,1,7.41.36,33.34,33.34,0,0,1,5.25.93v-2a11.87,11.87,0,0,0-3.31-8.78q-3.31-3.31-11.51-3.31a73.46,73.46,0,0,0-10.79.79,46.51,46.51,0,0,0-9.21,2.23l-2.73-17.26q1.87-.57,4.67-1.22t6.11-1.15q3.31-.5,7-.86t7.41-.36m1.73,62.72q3.16,0,6-.14a41.32,41.32,0,0,0,4.6-.43V165.58q-1.3-.29-3.88-.58a43.23,43.23,0,0,0-4.75-.29,42.77,42.77,0,0,0-5.68.36,14.9,14.9,0,0,0-4.67,1.37,8,8,0,0,0-3.17,2.73,7.6,7.6,0,0,0-1.15,4.31q0,5,3.38,7t9.28,1.94" transform="translate(-35.48 -45.69)" class="a"></path>
    <path d="M728.79,94.36q21.46,0,32.89,7.64t11.42,23.74q0,10-4.61,16.31a30.35,30.35,0,0,1-13.28,9.84q2.89,3.58,6.05,8.19t6.26,9.63c2.06,3.35,38.9,62.58,38.9,62.58h-24S745.92,175,744,172s-3.75-5.89-5.59-8.6-3.68-5.16-5.53-7.36H722.32v43H700.85V96.84a122.39,122.39,0,0,1,14.52-1.93q7.5-.55,13.42-.55m1.24,18.3q-2.34,0-4.2.14l-3.51.28v25.87h6.05q12.11,0,17.34-3t5.23-10.32q0-7-5.3-10t-15.62-3" transform="translate(-35.48 -45.69)" class="a"></path>
    <path d="M747.39,238.69S735.71,205,781.58,184.13c20.72-9.43,21.47-29.21,21.47-29.21s10.07,20.7-4.74,33.62c-12.55,11-41.23,12.71-50.92,50.15" transform="translate(-35.48 -45.69)" class="b"></path>
</svg>